<svg width="40" height="40" viewBox="0 0 40 40" fill="none" xmlns="http://www.w3.org/2000/svg">
<path d="M38.516 23.9184H34.977C34.3673 24.7889 33.3755 25.3456 32.2644 25.3076C30.5496 25.2495 29.1617 23.7589 29.1366 21.9514C29.1105 20.0489 30.5716 18.4928 32.3717 18.4928C33.5851 18.4928 34.6431 19.1995 35.1966 20.2433H38.517C38.7827 20.2433 38.9682 19.9707 38.887 19.7045C38.0035 16.8015 35.4162 14.694 32.3707 14.694C32.1842 14.694 31.9996 14.7025 31.8171 14.7173C31.7459 14.7215 31.6697 14.7278 31.5905 14.7363C29.5207 14.9835 27.7276 16.2078 26.6386 17.9593C25.4151 15.9955 23.3072 14.6961 20.9165 14.6961C19.7472 14.6961 18.6451 15.0067 17.6814 15.5539V14.1965C17.6814 11.3484 14.0752 11.6696 14.0752 11.6696V18.7273C13.7413 18.0132 13.2991 17.3656 12.7706 16.8089C11.5321 15.5043 9.82129 14.6961 7.93498 14.6961C6.04868 14.6961 4.33887 15.5043 3.09939 16.8089C1.86091 18.1146 1.09375 19.9158 1.09375 21.9029C1.09375 23.8899 1.86091 25.6911 3.09939 26.9968C4.33787 28.3014 6.04868 29.1096 7.93498 29.1096C9.27776 29.1096 10.5323 28.6997 11.5903 27.9919C12.5409 29.2976 14.7762 29.099 14.7762 29.099V25.0784C15.8924 27.4637 18.2249 29.1096 20.9165 29.1096C23.3112 29.1096 25.4211 27.8049 26.6436 25.8369C26.6436 25.8369 26.6436 25.8369 26.6436 25.8379C27.8269 27.7384 29.8386 29.0198 32.128 29.1043C35.1876 29.2163 37.824 27.1986 38.8038 24.3516C38.876 24.1413 38.7276 23.9184 38.515 23.9184H38.516ZM7.93498 25.3108C7.04348 25.3108 6.2342 24.9284 5.64855 24.3114C5.06291 23.6945 4.69989 22.842 4.69989 21.9029C4.69989 20.9637 5.06291 20.1112 5.64855 19.4943C6.2342 18.8773 7.04348 18.4949 7.93498 18.4949C8.82649 18.4949 9.63576 18.8773 10.2214 19.4943C10.8071 20.1112 11.1701 20.9637 11.1701 21.9029V23.0966L10.2214 24.3114C9.63576 24.9284 8.82649 25.3108 7.93498 25.3108V25.3108ZM23.2029 24.3114C22.6173 24.9284 21.808 25.3108 20.9165 25.3108C20.025 25.3108 19.2157 24.9284 18.63 24.3114C18.0444 23.6945 17.6814 22.842 17.6814 21.9029V20.7081L18.63 19.4932C19.2157 18.8763 20.025 18.4939 20.9165 18.4939C21.808 18.4939 22.6173 18.8763 23.2029 19.4932C23.7886 20.1102 24.1516 20.9627 24.1516 21.9018C24.1516 22.8409 23.7886 23.6934 23.2029 24.3104V24.3114Z" fill="url(#paint0_linear_420_30420)"/>
<path d="M7.93497 28.9076C6.10182 28.9076 4.43915 28.1216 3.23576 26.854C2.03138 25.5852 1.28528 23.8337 1.28528 21.9027C1.28528 19.9716 2.03138 18.2201 3.23476 16.9513C4.43915 15.6826 6.10082 14.8977 7.93397 14.8977C9.76712 14.8977 11.4298 15.6837 12.6332 16.9513C13.8376 18.2201 14.5827 19.9705 14.5827 21.9027C14.5827 23.8348 13.8366 25.5852 12.6332 26.8529C11.4288 28.1216 9.76712 28.9065 7.93397 28.9065L7.93497 28.9076ZM7.93497 18.293C6.99032 18.293 6.13391 18.6976 5.51317 19.3515C4.89242 20.0054 4.50834 20.9075 4.50834 21.9027C4.50834 22.8978 4.89242 23.7999 5.51317 24.4538C6.13391 25.1078 6.99032 25.5123 7.93497 25.5123C8.87963 25.5123 9.73604 25.1078 10.3568 24.4538C10.9775 23.7999 11.3616 22.8978 11.3616 21.9027C11.3616 20.9075 10.9775 20.0054 10.3568 19.3515C9.73604 18.6976 8.87963 18.293 7.93497 18.293V18.293Z" fill="url(#paint1_linear_420_30420)"/>
<path d="M20.9169 28.9076C17.2506 28.9076 14.2672 25.7648 14.2672 21.9027C14.2672 21.834 14.2682 21.7653 14.2702 21.6977L14.2762 21.4896H14.2672V11.8627C14.3053 11.8627 14.3494 11.8606 14.3976 11.8606C15.3272 11.8606 17.4893 12.0888 17.4893 14.1973V15.8929L17.7721 15.7323C18.7328 15.1861 19.8208 14.8977 20.9159 14.8977C24.5822 14.8977 27.5656 18.0405 27.5656 21.9027C27.5656 25.7648 24.5822 28.9076 20.9159 28.9076H20.9169ZM20.9169 18.293C19.0276 18.293 17.4903 19.9124 17.4903 21.9027C17.4903 23.8929 19.0276 25.5124 20.9169 25.5124C22.8062 25.5124 24.3435 23.8929 24.3435 21.9027C24.3435 19.9124 22.8062 18.293 20.9169 18.293V18.293Z" fill="url(#paint2_linear_420_30420)"/>
<path d="M17.6808 15.5538V20.708L18.6295 19.4931C19.2151 18.8762 20.0244 18.4938 20.9159 18.4938V14.696C19.7466 14.696 18.6445 15.0066 17.6808 15.5538V15.5538Z" fill="url(#paint3_linear_420_30420)"/>
<path d="M11.1694 26.5719V23.0974L10.2208 24.3123C9.63511 24.9292 8.82583 25.3116 7.93433 25.3116V29.1104C9.2771 29.1104 10.5316 28.7005 11.5896 27.9927C11.3329 27.6399 11.1694 27.1783 11.1694 26.5729V26.5719Z" fill="url(#paint4_linear_420_30420)"/>
<path d="M38.5153 23.9184H35.212C35.0887 24.1107 34.9473 24.2903 34.7928 24.454C34.1721 25.1079 33.3157 25.5125 32.371 25.5125C31.4264 25.5125 30.5699 25.1079 29.9492 24.454C29.3285 23.8001 28.9444 22.8979 28.9444 21.9028C28.9444 20.9077 29.3285 20.0055 29.9492 19.3516C30.5699 18.6977 31.4264 18.2931 32.371 18.2931C33.3157 18.2931 34.1731 18.6977 34.7928 19.3516C35.0405 19.6126 35.2481 19.9136 35.4106 20.2443H38.5163C38.6306 20.2443 38.7289 20.1915 38.7991 20.1122C38.4942 18.8995 37.8885 17.8146 37.0702 16.9526C35.8658 15.6838 34.2042 14.8989 32.37 14.8989C30.5359 14.8989 28.8742 15.6849 27.6708 16.9526C26.4664 18.2213 25.7213 19.9717 25.7213 21.9039C25.7213 23.836 26.4674 25.5865 27.6708 26.8541C28.8752 28.1229 30.5369 28.9078 32.37 28.9078C34.2032 28.9078 35.8658 28.1218 37.0702 26.8541C37.8193 26.065 38.3909 25.0878 38.7159 23.9976C38.6627 23.949 38.5935 23.9184 38.5153 23.9184V23.9184Z" fill="url(#paint5_linear_420_30420)"/>
<path opacity="0.65" d="M30.9054 18.8665C30.9054 18.8665 30.9054 18.8591 30.9054 18.856C30.8111 18.9067 30.7199 18.9616 30.6316 19.0208C29.5044 19.7476 28.7975 20.9698 28.277 22.359C27.7224 23.84 27.196 24.964 26.6444 25.8366C27.4306 27.1001 28.5829 28.0909 29.9397 28.6371C30.1743 27.2691 30.3558 25.9401 30.4962 24.6725C29.686 24.0608 29.1505 23.0678 29.1344 21.9522C29.1154 20.6075 29.8424 19.438 30.9044 18.8676L30.9054 18.8665Z" fill="url(#paint6_linear_420_30420)"/>
<defs>
<linearGradient id="paint0_linear_420_30420" x1="1.09375" y1="20.3848" x2="38.525" y2="20.3848" gradientUnits="userSpaceOnUse">
<stop stop-color="#ED1C24"/>
<stop offset="1" stop-color="#FFCF01"/>
</linearGradient>
<linearGradient id="paint1_linear_420_30420" x1="3.02918" y1="16.7348" x2="4.47132" y2="18.1038" gradientUnits="userSpaceOnUse">
<stop stop-color="white"/>
<stop offset="1" stop-color="white" stop-opacity="0"/>
</linearGradient>
<linearGradient id="paint2_linear_420_30420" x1="12.7961" y1="13.3491" x2="14.5937" y2="15.0545" gradientUnits="userSpaceOnUse">
<stop stop-color="white"/>
<stop offset="1" stop-color="white" stop-opacity="0"/>
</linearGradient>
<linearGradient id="paint3_linear_420_30420" x1="17.6808" y1="17.7025" x2="20.6933" y2="17.7025" gradientUnits="userSpaceOnUse">
<stop stop-color="#ED1C24"/>
<stop offset="0.12" stop-color="#ED1C24" stop-opacity="0.84"/>
<stop offset="0.36" stop-color="#ED1C24" stop-opacity="0.54"/>
<stop offset="0.58" stop-color="#ED1C24" stop-opacity="0.31"/>
<stop offset="0.76" stop-color="#ED1C24" stop-opacity="0.14"/>
<stop offset="0.91" stop-color="#ED1C24" stop-opacity="0.04"/>
<stop offset="1" stop-color="#ED1C24" stop-opacity="0"/>
</linearGradient>
<linearGradient id="paint4_linear_420_30420" x1="7.93433" y1="26.1029" x2="11.3379" y2="26.1029" gradientUnits="userSpaceOnUse">
<stop stop-color="#ED1C24" stop-opacity="0"/>
<stop offset="0.09" stop-color="#ED1C24" stop-opacity="0.04"/>
<stop offset="0.24" stop-color="#ED1C24" stop-opacity="0.14"/>
<stop offset="0.42" stop-color="#ED1C24" stop-opacity="0.31"/>
<stop offset="0.64" stop-color="#ED1C24" stop-opacity="0.54"/>
<stop offset="0.88" stop-color="#ED1C24" stop-opacity="0.84"/>
<stop offset="1" stop-color="#ED1C24"/>
</linearGradient>
<linearGradient id="paint5_linear_420_30420" x1="27.4652" y1="16.7349" x2="28.9074" y2="18.1039" gradientUnits="userSpaceOnUse">
<stop stop-color="white"/>
<stop offset="1" stop-color="white" stop-opacity="0"/>
</linearGradient>
<linearGradient id="paint6_linear_420_30420" x1="26.1029" y1="22.3104" x2="30.9852" y2="23.7723" gradientUnits="userSpaceOnUse">
<stop offset="0.3" stop-color="#ED1C24"/>
<stop offset="1" stop-color="white" stop-opacity="0"/>
</linearGradient>
</defs>
</svg>
